<svg xmlns="http://www.w3.org/2000/svg" xmlns:xlink="http://www.w3.org/1999/xlink" xmlns:lucid="lucid" width="1519" height="1048"><g transform="translate(-120.5 -100)" lucid:page-tab-id="EDh5MZ4phOGY"><path d="M155.57 712.15a10.06 10.06 0 0 1 0-10.3l58.86-98.7a10.56 10.56 0 0 1 9.07-5.15h118a10.56 10.56 0 0 1 9.07 5.15l58.86 98.7a10.06 10.06 0 0 1 0 10.3l-58.86 98.7a10.56 10.56 0 0 1-9.07 5.15h-118a10.56 10.56 0 0 1-9.07-5.15z" stroke="#3a414a" fill="#1071e5"/><path d="M143.57 694.15a10.06 10.06 0 0 1 0-10.3l58.86-98.7a10.56 10.56 0 0 1 9.07-5.15h118a10.56 10.56 0 0 1 9.07 5.15l58.86 98.7a10.06 10.06 0 0 1 0 10.3l-58.86 98.7a10.56 10.56 0 0 1-9.07 5.15h-118a10.56 10.56 0 0 1-9.07-5.15z" stroke="#3a414a" fill="#cfe4ff"/><use xlink:href="#a" transform="matrix(1,0,0,1,145.5,585) translate(107.10376543209877 108.77777777777777)"/><path d="M229.5 824.2a10.35 10.35 0 0 1 0-10.4l34-58.6a10.4 10.4 0 0 1 9-5.2h68a10.4 10.4 0 0 1 9 5.2l34 58.6a10.35 10.35 0 0 1 0 10.4l-34 58.6a10.4 10.4 0 0 1-9 5.2h-68a10.4 10.4 0 0 1-9-5.2z" stroke="#3a414a"/><path d="M223.5 814.2a10.35 10.35 0 0 1 0-10.4l34-58.6a10.4 10.4 0 0 1 9-5.2h68a10.4 10.4 0 0 1 9 5.2l34 58.6a10.35 10.35 0 0 1 0 10.4l-34 58.6a10.4 10.4 0 0 1-9 5.2h-68a10.4 10.4 0 0 1-9-5.2z" stroke="#3a414a" fill="#fff"/><use xlink:href="#b" transform="matrix(1,0,0,1,225.5,745) translate(21.455617283950602 69.77777777777777)"/><path d="M363.5 747.2a10.35 10.35 0 0 1 0-10.4l34-58.6a10.4 10.4 0 0 1 9-5.2h68a10.4 10.4 0 0 1 9 5.2l34 58.6a10.35 10.35 0 0 1 0 10.4l-34 58.6a10.4 10.4 0 0 1-9 5.2h-68a10.4 10.4 0 0 1-9-5.2z" stroke="#3a414a"/><path d="M357.5 737.2a10.35 10.35 0 0 1 0-10.4l34-58.6a10.4 10.4 0 0 1 9-5.2h68a10.4 10.4 0 0 1 9 5.2l34 58.6a10.35 10.35 0 0 1 0 10.4l-34 58.6a10.4 10.4 0 0 1-9 5.2h-68a10.4 10.4 0 0 1-9-5.2z" stroke="#3a414a" fill="#fff"/><use xlink:href="#c" transform="matrix(1,0,0,1,359.5,668) translate(29.97413580246912 53.77777777777778)"/><use xlink:href="#d" transform="matrix(1,0,0,1,359.5,668) translate(30.65314814814814 80.44444444444446)"/><path d="M157.57 252.15a10.06 10.06 0 0 1 0-10.3l58.86-98.7a10.56 10.56 0 0 1 9.07-5.15h118a10.56 10.56 0 0 1 9.07 5.15l58.86 98.7a10.06 10.06 0 0 1 0 10.3l-58.86 98.7a10.56 10.56 0 0 1-9.07 5.15h-118a10.56 10.56 0 0 1-9.07-5.15z" stroke="#3a414a" fill="#1071e5"/><path d="M145.57 234.15a10.06 10.06 0 0 1 0-10.3l58.86-98.7a10.56 10.56 0 0 1 9.07-5.15h118a10.56 10.56 0 0 1 9.07 5.15l58.86 98.7a10.06 10.06 0 0 1 0 10.3l-58.86 98.7a10.56 10.56 0 0 1-9.07 5.15h-118a10.56 10.56 0 0 1-9.07-5.15z" stroke="#3a414a" fill="#cfe4ff"/><use xlink:href="#e" transform="matrix(1,0,0,1,147.5,125) translate(63.9556172839506 108.77777777777777)"/><path d="M231.5 361.52a10.35 10.35 0 0 1 0-10.38l34-58.62a10.4 10.4 0 0 1 9-5.2h68a10.4 10.4 0 0 1 9 5.2l34 58.62a10.35 10.35 0 0 1 0 10.38l-34 58.62a10.4 10.4 0 0 1-9 5.2h-68a10.4 10.4 0 0 1-9-5.2z" stroke="#3a414a"/><path d="M225.5 351.52a10.35 10.35 0 0 1 0-10.38l34-58.62a10.4 10.4 0 0 1 9-5.2h68a10.4 10.4 0 0 1 9 5.2l34 58.62a10.35 10.35 0 0 1 0 10.38l-34 58.62a10.4 10.4 0 0 1-9 5.2h-68a10.4 10.4 0 0 1-9-5.2z" stroke="#3a414a" fill="#fff"/><use xlink:href="#f" transform="matrix(1,0,0,1,227.5,282.33333333337214) translate(39.264259259259255 69.77777777777777)"/><path d="M365.5 284.2a10.35 10.35 0 0 1 0-10.4l34-58.6a10.4 10.4 0 0 1 9-5.2h68a10.4 10.4 0 0 1 9 5.2l34 58.6a10.35 10.35 0 0 1 0 10.4l-34 58.6a10.4 10.4 0 0 1-9 5.2h-68a10.4 10.4 0 0 1-9-5.2z" stroke="#3a414a"/><path d="M359.5 274.2a10.35 10.35 0 0 1 0-10.4l34-58.6a10.4 10.4 0 0 1 9-5.2h68a10.4 10.4 0 0 1 9 5.2l34 58.6a10.35 10.35 0 0 1 0 10.4l-34 58.6a10.4 10.4 0 0 1-9 5.2h-68a10.4 10.4 0 0 1-9-5.2z" stroke="#3a414a" fill="#fff"/><use xlink:href="#g" transform="matrix(1,0,0,1,361.5,205) translate(40.46796296296296 69.77777777777777)"/><path d="M371.5 441.52a10.35 10.35 0 0 1 0-10.38l34-58.62a10.4 10.4 0 0 1 9-5.2h68a10.4 10.4 0 0 1 9 5.2l34 58.62a10.35 10.35 0 0 1 0 10.38l-34 58.62a10.4 10.4 0 0 1-9 5.2h-68a10.4 10.4 0 0 1-9-5.2z" stroke="#3a414a"/><path d="M365.5 431.52a10.35 10.35 0 0 1 0-10.38l34-58.62a10.4 10.4 0 0 1 9-5.2h68a10.4 10.4 0 0 1 9 5.2l34 58.62a10.35 10.35 0 0 1 0 10.38l-34 58.62a10.4 10.4 0 0 1-9 5.2h-68a10.4 10.4 0 0 1-9-5.2z" stroke="#3a414a" fill="#fff"/><use xlink:href="#h" transform="matrix(1,0,0,1,367.5,362.33333333333326) translate(24.418580246913564 69.77777777777777)"/><path d="M737.57 707.65a10.06 10.06 0 0 1 0-10.3l58.86-98.7a10.56 10.56 0 0 1 9.07-5.15h118a10.56 10.56 0 0 1 9.07 5.15l58.86 98.7a10.06 10.06 0 0 1 0 10.3l-58.86 98.7a10.56 10.56 0 0 1-9.07 5.15h-118a10.56 10.56 0 0 1-9.07-5.15z" stroke="#3a414a" fill="#1071e5"/><path d="M725.57 689.65a10.06 10.06 0 0 1 0-10.3l58.86-98.7a10.56 10.56 0 0 1 9.07-5.15h118a10.56 10.56 0 0 1 9.07 5.15l58.86 98.7a10.06 10.06 0 0 1 0 10.3l-58.86 98.7a10.56 10.56 0 0 1-9.07 5.15h-118a10.56 10.56 0 0 1-9.07-5.15z" stroke="#3a414a" fill="#cfe4ff"/><use xlink:href="#i" transform="matrix(1,0,0,1,727.5,580.5) translate(86.825987654321 108.77777777777777)"/><path d="M811.5 813.7a10.35 10.35 0 0 1 0-10.4l34-58.6a10.4 10.4 0 0 1 9-5.2h68a10.4 10.4 0 0 1 9 5.2l34 58.6a10.35 10.35 0 0 1 0 10.4l-34 58.6a10.4 10.4 0 0 1-9 5.2h-68a10.4 10.4 0 0 1-9-5.2z" stroke="#3a414a"/><path d="M805.5 803.7a10.35 10.35 0 0 1 0-10.4l34-58.6a10.4 10.4 0 0 1 9-5.2h68a10.4 10.4 0 0 1 9 5.2l34 58.6a10.35 10.35 0 0 1 0 10.4l-34 58.6a10.4 10.4 0 0 1-9 5.2h-68a10.4 10.4 0 0 1-9-5.2z" stroke="#3a414a" fill="#fff"/><use xlink:href="#j" transform="matrix(1,0,0,1,807.5,734.5) translate(18.245740740740736 69.77777777777777)"/><path d="M946.5 739.7a10.35 10.35 0 0 1 0-10.4l34-58.6a10.4 10.4 0 0 1 9-5.2h68a10.4 10.4 0 0 1 9 5.2l34 58.6a10.35 10.35 0 0 1 0 10.4l-34 58.6a10.4 10.4 0 0 1-9 5.2h-68a10.4 10.4 0 0 1-9-5.2z" stroke="#3a414a"/><path d="M940.5 729.7a10.35 10.35 0 0 1 0-10.4l34-58.6a10.4 10.4 0 0 1 9-5.2h68a10.4 10.4 0 0 1 9 5.2l34 58.6a10.35 10.35 0 0 1 0 10.4l-34 58.6a10.4 10.4 0 0 1-9 5.2h-68a10.4 10.4 0 0 1-9-5.2z" stroke="#3a414a" fill="#fff"/><use xlink:href="#k" transform="matrix(1,0,0,1,942.5,660.5) translate(6.764259259259271 69.77777777777777)"/><use xlink:href="#l" transform="matrix(1,0,0,1,942.5,660.5) translate(67.99882716049383 69.77777777777777)"/><path d="M952.5 901.7a10.35 10.35 0 0 1 0-10.4l34-58.6a10.4 10.4 0 0 1 9-5.2h68a10.4 10.4 0 0 1 9 5.2l34 58.6a10.35 10.35 0 0 1 0 10.4l-34 58.6a10.4 10.4 0 0 1-9 5.2h-68a10.4 10.4 0 0 1-9-5.2z" stroke="#3a414a"/><path d="M946.5 891.7a10.35 10.35 0 0 1 0-10.4l34-58.6a10.4 10.4 0 0 1 9-5.2h68a10.4 10.4 0 0 1 9 5.2l34 58.6a10.35 10.35 0 0 1 0 10.4l-34 58.6a10.4 10.4 0 0 1-9 5.2h-68a10.4 10.4 0 0 1-9-5.2z" stroke="#3a414a" fill="#fff"/><use xlink:href="#m" transform="matrix(1,0,0,1,948.5,822.5) translate(13.400061728395054 69.77777777777777)"/><path d="M811.5 978.7a10.35 10.35 0 0 1 0-10.4l34-58.6a10.4 10.4 0 0 1 9-5.2h68a10.4 10.4 0 0 1 9 5.2l34 58.6a10.35 10.35 0 0 1 0 10.4l-34 58.6a10.4 10.4 0 0 1-9 5.2h-68a10.4 10.4 0 0 1-9-5.2z" stroke="#3a414a"/><path d="M805.5 968.7a10.35 10.35 0 0 1 0-10.4l34-58.6a10.4 10.4 0 0 1 9-5.2h68a10.4 10.4 0 0 1 9 5.2l34 58.6a10.35 10.35 0 0 1 0 10.4l-34 58.6a10.4 10.4 0 0 1-9 5.2h-68a10.4 10.4 0 0 1-9-5.2z" stroke="#3a414a" fill="#fff"/><use xlink:href="#n" transform="matrix(1,0,0,1,807.5,899.5) translate(20.71487654320987 69.77777777777777)"/><path d="M671.5 891.7a10.35 10.35 0 0 1 0-10.4l34-58.6a10.4 10.4 0 0 1 9-5.2h68a10.4 10.4 0 0 1 9 5.2l34 58.6a10.35 10.35 0 0 1 0 10.4l-34 58.6a10.4 10.4 0 0 1-9 5.2h-68a10.4 10.4 0 0 1-9-5.2z" stroke="#3a414a"/><path d="M665.5 881.7a10.35 10.35 0 0 1 0-10.4l34-58.6a10.4 10.4 0 0 1 9-5.2h68a10.4 10.4 0 0 1 9 5.2l34 58.6a10.35 10.35 0 0 1 0 10.4l-34 58.6a10.4 10.4 0 0 1-9 5.2h-68a10.4 10.4 0 0 1-9-5.2z" stroke="#3a414a" fill="#fff"/><use xlink:href="#o" transform="matrix(1,0,0,1,667.5,812.5) translate(36.82598765432098 53.77777777777778)"/><use xlink:href="#p" transform="matrix(1,0,0,1,667.5,812.5) translate(32.47413580246913 80.44444444444446)"/><path d="M955.5 1064.2a10.35 10.35 0 0 1 0-10.4l34-58.6a10.4 10.4 0 0 1 9-5.2h68a10.4 10.4 0 0 1 9 5.2l34 58.6a10.35 10.35 0 0 1 0 10.4l-34 58.6a10.4 10.4 0 0 1-9 5.2h-68a10.4 10.4 0 0 1-9-5.2z" stroke="#3a414a"/><path d="M949.5 1054.2a10.35 10.35 0 0 1 0-10.4l34-58.6a10.4 10.4 0 0 1 9-5.2h68a10.4 10.4 0 0 1 9 5.2l34 58.6a10.35 10.35 0 0 1 0 10.4l-34 58.6a10.4 10.4 0 0 1-9 5.2h-68a10.4 10.4 0 0 1-9-5.2z" stroke="#3a414a" fill="#fff"/><use xlink:href="#q" transform="matrix(1,0,0,1,951.5,985) translate(38.64697530864197 69.77777777777777)"/><path d="M1257.57 707.65a10.06 10.06 0 0 1 0-10.3l58.86-98.7a10.56 10.56 0 0 1 9.07-5.15h118a10.56 10.56 0 0 1 9.07 5.15l58.86 98.7a10.06 10.06 0 0 1 0 10.3l-58.86 98.7a10.56 10.56 0 0 1-9.07 5.15h-118a10.56 10.56 0 0 1-9.07-5.15z" stroke="#3a414a" fill="#1071e5"/><path d="M1245.57 689.65a10.06 10.06 0 0 1 0-10.3l58.86-98.7a10.56 10.56 0 0 1 9.07-5.15h118a10.56 10.56 0 0 1 9.07 5.15l58.86 98.7a10.06 10.06 0 0 1 0 10.3l-58.86 98.7a10.56 10.56 0 0 1-9.07 5.15h-118a10.56 10.56 0 0 1-9.07-5.15z" stroke="#3a414a" fill="#cfe4ff"/><use xlink:href="#r" transform="matrix(1,0,0,1,1247.5,580.5) translate(38.153148148148155 108.77777777777777)"/><path d="M1329.5 814.2a10.35 10.35 0 0 1 0-10.4l34-58.6a10.4 10.4 0 0 1 9-5.2h68a10.4 10.4 0 0 1 9 5.2l34 58.6a10.35 10.35 0 0 1 0 10.4l-34 58.6a10.4 10.4 0 0 1-9 5.2h-68a10.4 10.4 0 0 1-9-5.2z" stroke="#3a414a"/><path d="M1323.5 804.2a10.35 10.35 0 0 1 0-10.4l34-58.6a10.4 10.4 0 0 1 9-5.2h68a10.4 10.4 0 0 1 9 5.2l34 58.6a10.35 10.35 0 0 1 0 10.4l-34 58.6a10.4 10.4 0 0 1-9 5.2h-68a10.4 10.4 0 0 1-9-5.2z" stroke="#3a414a" fill="#fff"/><use xlink:href="#s" transform="matrix(1,0,0,1,1325.5,735) translate(22.597592592592584 53.77777777777778)"/><use xlink:href="#t" transform="matrix(1,0,0,1,1325.5,735) translate(49.10993827160494 80.44444444444446)"/><path d="M1462.5 742.2a10.35 10.35 0 0 1 0-10.4l34-58.6a10.4 10.4 0 0 1 9-5.2h68a10.4 10.4 0 0 1 9 5.2l34 58.6a10.35 10.35 0 0 1 0 10.4l-34 58.6a10.4 10.4 0 0 1-9 5.2h-68a10.4 10.4 0 0 1-9-5.2z" stroke="#3a414a"/><path d="M1456.5 732.2a10.35 10.35 0 0 1 0-10.4l34-58.6a10.4 10.4 0 0 1 9-5.2h68a10.4 10.4 0 0 1 9 5.2l34 58.6a10.35 10.35 0 0 1 0 10.4l-34 58.6a10.4 10.4 0 0 1-9 5.2h-68a10.4 10.4 0 0 1-9-5.2z" stroke="#3a414a" fill="#fff"/><use xlink:href="#u" transform="matrix(1,0,0,1,1458.5,663) translate(29.974135802469128 53.77777777777778)"/><use xlink:href="#v" transform="matrix(1,0,0,1,1458.5,663) translate(19.511172839506166 80.44444444444446)"/><use xlink:href="#t" transform="matrix(1,0,0,1,1458.5,663) translate(78.7087037037037 80.44444444444446)"/><path d="M270.5 577.5v-94.76" stroke="#3a414a" stroke-width="4" fill="none"/><path d="M272.5 579.5h-4v-2.05h4z" stroke="#3a414a" stroke-width=".05" fill="#3a414a"/><path d="M270.5 466.47l4.63 14.27h-9.26z" stroke="#3a414a" stroke-width="4" fill="#3a414a"/><path d="M491.93 688.27l167.83.03" stroke="#3a414a" stroke-width="4" fill="none"/><path d="M491.98 686.27v4h-.9l-2.3-4z" stroke="#3a414a" stroke-width=".05" fill="#3a414a"/><path d="M676.03 688.3l-14.27 4.64v-9.27z" stroke="#3a414a" stroke-width="4" fill="#3a414a"/><path d="M1241.65 684.5h-116.4" stroke="#3a414a" stroke-width="4" fill="none"/><path d="M1243.7 683.37l-.05 1.13.06 1.13.15.87h-2.25v-4h2.25z" stroke="#3a414a" stroke-width=".05" fill="#3a414a"/><path d="M1108.97 684.5l14.27-4.63v9.26z" stroke="#3a414a" stroke-width="4" fill="#3a414a"/><path d="M855 573.5V266a6 6 0 0 0-6-6H560.62" stroke="#3a414a" stroke-width="3" fill="none"/><path d="M856.5 575h-3v-1.54h3z" stroke="#3a414a" stroke-width=".05" fill="#3a414a"/><path d="M544.85 260l14.27-4.63v9.26z" stroke="#3a414a" stroke-width="3" fill="#3a414a"/><defs><path fill="#3a414a" d="M205 0l-28-72H64L36 0H1l101-248h38L239 0h-34zm-38-99l-47-123c-12 45-31 82-46 123h93" id="w"/><path fill="#3a414a" d="M30-248c87 1 191-15 191 75 0 78-77 80-158 76V0H30v-248zm33 125c57 0 124 11 124-50 0-59-68-47-124-48v98" id="x"/><path fill="#3a414a" d="M33 0v-248h34V0H33" id="y"/><g id="a"><use transform="matrix(0.06172839506172839,0,0,0.06172839506172839,0,0)" xlink:href="#w"/><use transform="matrix(0.06172839506172839,0,0,0.06172839506172839,14.814814814814813,0)" xlink:href="#x"/><use transform="matrix(0.06172839506172839,0,0,0.06172839506172839,29.629629629629626,0)" xlink:href="#y"/></g><path fill="#3a414a" d="M212-179c-10-28-35-45-73-45-59 0-87 40-87 99 0 60 29 101 89 101 43 0 62-24 78-52l27 14C228-24 195 4 139 4 59 4 22-46 18-125c-6-104 99-153 187-111 19 9 31 26 39 46" id="z"/><path fill="#3a414a" d="M100-194c62-1 85 37 85 99 1 63-27 99-86 99S16-35 15-95c0-66 28-99 85-99zM99-20c44 1 53-31 53-75 0-43-8-75-51-75s-53 32-53 75 10 74 51 75" id="A"/><path fill="#3a414a" d="M117-194c89-4 53 116 60 194h-32v-121c0-31-8-49-39-48C34-167 62-67 57 0H25l-1-190h30c1 10-1 24 2 32 11-22 29-35 61-36" id="B"/><path fill="#3a414a" d="M59-47c-2 24 18 29 38 22v24C64 9 27 4 27-40v-127H5v-23h24l9-43h21v43h35v23H59v120" id="C"/><path fill="#3a414a" d="M114-163C36-179 61-72 57 0H25l-1-190h30c1 12-1 29 2 39 6-27 23-49 58-41v29" id="D"/><path fill="#3a414a" d="M24 0v-261h32V0H24" id="E"/><path fill="#3a414a" d="M100-194c63 0 86 42 84 106H49c0 40 14 67 53 68 26 1 43-12 49-29l28 8c-11 28-37 45-77 45C44 4 14-33 15-96c1-61 26-98 85-98zm52 81c6-60-76-77-97-28-3 7-6 17-6 28h103" id="F"/><path fill="#3a414a" d="M135-143c-3-34-86-38-87 0 15 53 115 12 119 90S17 21 10-45l28-5c4 36 97 45 98 0-10-56-113-15-118-90-4-57 82-63 122-42 12 7 21 19 24 35" id="G"/><g id="b"><use transform="matrix(0.06172839506172839,0,0,0.06172839506172839,0,0)" xlink:href="#z"/><use transform="matrix(0.06172839506172839,0,0,0.06172839506172839,15.987654320987653,0)" xlink:href="#A"/><use transform="matrix(0.06172839506172839,0,0,0.06172839506172839,28.333333333333332,0)" xlink:href="#B"/><use transform="matrix(0.06172839506172839,0,0,0.06172839506172839,40.67901234567901,0)" xlink:href="#C"/><use transform="matrix(0.06172839506172839,0,0,0.06172839506172839,46.851851851851855,0)" xlink:href="#D"/><use transform="matrix(0.06172839506172839,0,0,0.06172839506172839,54.19753086419753,0)" xlink:href="#A"/><use transform="matrix(0.06172839506172839,0,0,0.06172839506172839,66.54320987654322,0)" xlink:href="#E"/><use transform="matrix(0.06172839506172839,0,0,0.06172839506172839,71.41975308641976,0)" xlink:href="#E"/><use transform="matrix(0.06172839506172839,0,0,0.06172839506172839,76.2962962962963,0)" xlink:href="#F"/><use transform="matrix(0.06172839506172839,0,0,0.06172839506172839,88.64197530864199,0)" xlink:href="#D"/><use transform="matrix(0.06172839506172839,0,0,0.06172839506172839,95.98765432098767,0)" xlink:href="#G"/></g><path fill="#3a414a" d="M240 0l2-218c-23 76-54 145-80 218h-23L58-218 59 0H30v-248h44l77 211c21-75 51-140 76-211h43V0h-30" id="H"/><path fill="#3a414a" d="M141-36C126-15 110 5 73 4 37 3 15-17 15-53c-1-64 63-63 125-63 3-35-9-54-41-54-24 1-41 7-42 31l-33-3c5-37 33-52 76-52 45 0 72 20 72 64v82c-1 20 7 32 28 27v20c-31 9-61-2-59-35zM48-53c0 20 12 33 32 33 41-3 63-29 60-74-43 2-92-5-92 41" id="I"/><path fill="#3a414a" d="M177-190C167-65 218 103 67 71c-23-6-38-20-44-43l32-5c15 47 100 32 89-28v-30C133-14 115 1 83 1 29 1 15-40 15-95c0-56 16-97 71-98 29-1 48 16 59 35 1-10 0-23 2-32h30zM94-22c36 0 50-32 50-73 0-42-14-75-50-75-39 0-46 34-46 75s6 73 46 73" id="J"/><g id="c"><use transform="matrix(0.06172839506172839,0,0,0.06172839506172839,0,0)" xlink:href="#H"/><use transform="matrix(0.06172839506172839,0,0,0.06172839506172839,18.456790123456788,0)" xlink:href="#F"/><use transform="matrix(0.06172839506172839,0,0,0.06172839506172839,30.80246913580247,0)" xlink:href="#G"/><use transform="matrix(0.06172839506172839,0,0,0.06172839506172839,41.91358024691358,0)" xlink:href="#G"/><use transform="matrix(0.06172839506172839,0,0,0.06172839506172839,53.0246913580247,0)" xlink:href="#I"/><use transform="matrix(0.06172839506172839,0,0,0.06172839506172839,65.37037037037038,0)" xlink:href="#J"/><use transform="matrix(0.06172839506172839,0,0,0.06172839506172839,77.71604938271606,0)" xlink:href="#F"/></g><path fill="#3a414a" d="M197 0v-115H63V0H30v-248h33v105h134v-105h34V0h-34" id="K"/><path fill="#3a414a" d="M85-194c31 0 48 13 60 33l-1-100h32l1 261h-30c-2-10 0-23-3-31C134-8 116 4 85 4 32 4 16-35 15-94c0-66 23-100 70-100zm9 24c-40 0-46 34-46 75 0 40 6 74 45 74 42 0 51-32 51-76 0-42-9-74-50-73" id="L"/><g id="d"><use transform="matrix(0.06172839506172839,0,0,0.06172839506172839,0,0)" xlink:href="#K"/><use transform="matrix(0.06172839506172839,0,0,0.06172839506172839,15.987654320987653,0)" xlink:href="#I"/><use transform="matrix(0.06172839506172839,0,0,0.06172839506172839,28.333333333333332,0)" xlink:href="#B"/><use transform="matrix(0.06172839506172839,0,0,0.06172839506172839,40.67901234567901,0)" xlink:href="#L"/><use transform="matrix(0.06172839506172839,0,0,0.06172839506172839,53.02469135802469,0)" xlink:href="#E"/><use transform="matrix(0.06172839506172839,0,0,0.06172839506172839,57.901234567901234,0)" xlink:href="#F"/><use transform="matrix(0.06172839506172839,0,0,0.06172839506172839,70.24691358024691,0)" xlink:href="#D"/><use transform="matrix(0.06172839506172839,0,0,0.06172839506172839,77.5925925925926,0)" xlink:href="#G"/></g><path fill="#3a414a" d="M115-194c53 0 69 39 70 98 0 66-23 100-70 100C84 3 66-7 56-30L54 0H23l1-261h32v101c10-23 28-34 59-34zm-8 174c40 0 45-34 45-75 0-40-5-75-45-74-42 0-51 32-51 76 0 43 10 73 51 73" id="M"/><path fill="#3a414a" d="M96-169c-40 0-48 33-48 73s9 75 48 75c24 0 41-14 43-38l32 2c-6 37-31 61-74 61-59 0-76-41-82-99-10-93 101-131 147-64 4 7 5 14 7 22l-32 3c-4-21-16-35-41-35" id="N"/><path fill="#3a414a" d="M24-231v-30h32v30H24zM24 0v-190h32V0H24" id="O"/><g id="e"><use transform="matrix(0.06172839506172839,0,0,0.06172839506172839,0,0)" xlink:href="#w"/><use transform="matrix(0.06172839506172839,0,0,0.06172839506172839,14.814814814814813,0)" xlink:href="#M"/><use transform="matrix(0.06172839506172839,0,0,0.06172839506172839,27.160493827160494,0)" xlink:href="#G"/><use transform="matrix(0.06172839506172839,0,0,0.06172839506172839,38.27160493827161,0)" xlink:href="#C"/><use transform="matrix(0.06172839506172839,0,0,0.06172839506172839,44.44444444444445,0)" xlink:href="#D"/><use transform="matrix(0.06172839506172839,0,0,0.06172839506172839,51.79012345679013,0)" xlink:href="#I"/><use transform="matrix(0.06172839506172839,0,0,0.06172839506172839,64.13580246913581,0)" xlink:href="#N"/><use transform="matrix(0.06172839506172839,0,0,0.06172839506172839,75.24691358024693,0)" xlink:href="#C"/><use transform="matrix(0.06172839506172839,0,0,0.06172839506172839,81.41975308641976,0)" xlink:href="#O"/><use transform="matrix(0.06172839506172839,0,0,0.06172839506172839,86.2962962962963,0)" xlink:href="#A"/><use transform="matrix(0.06172839506172839,0,0,0.06172839506172839,98.64197530864199,0)" xlink:href="#B"/><use transform="matrix(0.06172839506172839,0,0,0.06172839506172839,110.98765432098767,0)" xlink:href="#G"/></g><g id="f"><use transform="matrix(0.06172839506172839,0,0,0.06172839506172839,0,0)" xlink:href="#H"/><use transform="matrix(0.06172839506172839,0,0,0.06172839506172839,18.456790123456788,0)" xlink:href="#A"/><use transform="matrix(0.06172839506172839,0,0,0.06172839506172839,30.80246913580247,0)" xlink:href="#L"/><use transform="matrix(0.06172839506172839,0,0,0.06172839506172839,43.148148148148145,0)" xlink:href="#F"/><use transform="matrix(0.06172839506172839,0,0,0.06172839506172839,55.49382716049382,0)" xlink:href="#E"/><use transform="matrix(0.06172839506172839,0,0,0.06172839506172839,60.37037037037037,0)" xlink:href="#G"/></g><path fill="#3a414a" d="M30 0v-248h187v28H63v79h144v27H63v87h162V0H30" id="P"/><path fill="#3a414a" d="M84 4C-5 8 30-112 23-190h32v120c0 31 7 50 39 49 72-2 45-101 50-169h31l1 190h-30c-1-10 1-25-2-33-11 22-28 36-60 37" id="Q"/><path fill="#3a414a" d="M210-169c-67 3-38 105-44 169h-31v-121c0-29-5-50-35-48C34-165 62-65 56 0H25l-1-190h30c1 10-1 24 2 32 10-44 99-50 107 0 11-21 27-35 58-36 85-2 47 119 55 194h-31v-121c0-29-5-49-35-48" id="R"/><g id="g"><use transform="matrix(0.06172839506172839,0,0,0.06172839506172839,0,0)" xlink:href="#P"/><use transform="matrix(0.06172839506172839,0,0,0.06172839506172839,14.814814814814813,0)" xlink:href="#B"/><use transform="matrix(0.06172839506172839,0,0,0.06172839506172839,27.160493827160494,0)" xlink:href="#Q"/><use transform="matrix(0.06172839506172839,0,0,0.06172839506172839,39.50617283950617,0)" xlink:href="#R"/><use transform="matrix(0.06172839506172839,0,0,0.06172839506172839,57.96296296296296,0)" xlink:href="#G"/></g><g id="h"><use transform="matrix(0.06172839506172839,0,0,0.06172839506172839,0,0)" xlink:href="#H"/><use transform="matrix(0.06172839506172839,0,0,0.06172839506172839,18.456790123456788,0)" xlink:href="#F"/><use transform="matrix(0.06172839506172839,0,0,0.06172839506172839,30.80246913580247,0)" xlink:href="#G"/><use transform="matrix(0.06172839506172839,0,0,0.06172839506172839,41.91358024691358,0)" xlink:href="#G"/><use transform="matrix(0.06172839506172839,0,0,0.06172839506172839,53.0246913580247,0)" xlink:href="#I"/><use transform="matrix(0.06172839506172839,0,0,0.06172839506172839,65.37037037037038,0)" xlink:href="#J"/><use transform="matrix(0.06172839506172839,0,0,0.06172839506172839,77.71604938271606,0)" xlink:href="#F"/><use transform="matrix(0.06172839506172839,0,0,0.06172839506172839,90.06172839506175,0)" xlink:href="#G"/></g><path fill="#3a414a" d="M30-248c118-7 216 8 213 122C240-48 200 0 122 0H30v-248zM63-27c89 8 146-16 146-99s-60-101-146-95v194" id="S"/><g id="i"><use transform="matrix(0.06172839506172839,0,0,0.06172839506172839,0,0)" xlink:href="#S"/><use transform="matrix(0.06172839506172839,0,0,0.06172839506172839,15.987654320987653,0)" xlink:href="#A"/><use transform="matrix(0.06172839506172839,0,0,0.06172839506172839,28.333333333333332,0)" xlink:href="#R"/><use transform="matrix(0.06172839506172839,0,0,0.06172839506172839,46.79012345679012,0)" xlink:href="#I"/><use transform="matrix(0.06172839506172839,0,0,0.06172839506172839,59.1358024691358,0)" xlink:href="#O"/><use transform="matrix(0.06172839506172839,0,0,0.06172839506172839,64.01234567901234,0)" xlink:href="#B"/></g><g id="j"><use transform="matrix(0.06172839506172839,0,0,0.06172839506172839,0,0)" xlink:href="#w"/><use transform="matrix(0.06172839506172839,0,0,0.06172839506172839,14.814814814814813,0)" xlink:href="#J"/><use transform="matrix(0.06172839506172839,0,0,0.06172839506172839,27.160493827160494,0)" xlink:href="#J"/><use transform="matrix(0.06172839506172839,0,0,0.06172839506172839,39.50617283950617,0)" xlink:href="#D"/><use transform="matrix(0.06172839506172839,0,0,0.06172839506172839,46.85185185185185,0)" xlink:href="#F"/><use transform="matrix(0.06172839506172839,0,0,0.06172839506172839,59.197530864197525,0)" xlink:href="#J"/><use transform="matrix(0.06172839506172839,0,0,0.06172839506172839,71.5432098765432,0)" xlink:href="#I"/><use transform="matrix(0.06172839506172839,0,0,0.06172839506172839,83.88888888888889,0)" xlink:href="#C"/><use transform="matrix(0.06172839506172839,0,0,0.06172839506172839,90.06172839506172,0)" xlink:href="#F"/><use transform="matrix(0.06172839506172839,0,0,0.06172839506172839,102.4074074074074,0)" xlink:href="#G"/></g><path fill="#3a414a" d="M137 0h-34L2-248h35l83 218 83-218h36" id="T"/><g id="k"><use transform="matrix(0.06172839506172839,0,0,0.06172839506172839,0,0)" xlink:href="#T"/><use transform="matrix(0.06172839506172839,0,0,0.06172839506172839,13.148148148148147,0)" xlink:href="#I"/><use transform="matrix(0.06172839506172839,0,0,0.06172839506172839,25.493827160493826,0)" xlink:href="#E"/><use transform="matrix(0.06172839506172839,0,0,0.06172839506172839,30.370370370370367,0)" xlink:href="#Q"/><use transform="matrix(0.06172839506172839,0,0,0.06172839506172839,42.716049382716044,0)" xlink:href="#F"/></g><path fill="#3a414a" d="M140-251c81 0 123 46 123 126C263-46 219 4 140 4 59 4 17-45 17-125s42-126 123-126zm0 227c63 0 89-41 89-101s-29-99-89-99c-61 0-89 39-89 99S79-25 140-24" id="U"/><path fill="#3a414a" d="M24-231v-30h32v30H24zM-9 49c24 4 33-6 33-30v-209h32V24c2 40-23 58-65 49V49" id="V"/><g id="l"><use transform="matrix(0.06172839506172839,0,0,0.06172839506172839,0,0)" xlink:href="#U"/><use transform="matrix(0.06172839506172839,0,0,0.06172839506172839,17.28395061728395,0)" xlink:href="#M"/><use transform="matrix(0.06172839506172839,0,0,0.06172839506172839,29.629629629629626,0)" xlink:href="#V"/><use transform="matrix(0.06172839506172839,0,0,0.06172839506172839,34.50617283950617,0)" xlink:href="#F"/><use transform="matrix(0.06172839506172839,0,0,0.06172839506172839,46.85185185185185,0)" xlink:href="#N"/><use transform="matrix(0.06172839506172839,0,0,0.06172839506172839,57.96296296296296,0)" xlink:href="#C"/><use transform="matrix(0.06172839506172839,0,0,0.06172839506172839,64.1358024691358,0)" xlink:href="#G"/></g><path fill="#3a414a" d="M233-177c-1 41-23 64-60 70L243 0h-38l-65-103H63V0H30v-248c88 3 205-21 203 71zM63-129c60-2 137 13 137-47 0-61-80-42-137-45v92" id="W"/><path fill="#3a414a" d="M115-194c55 1 70 41 70 98S169 2 115 4C84 4 66-9 55-30l1 105H24l-1-265h31l2 30c10-21 28-34 59-34zm-8 174c40 0 45-34 45-75s-6-73-45-74c-42 0-51 32-51 76 0 43 10 73 51 73" id="X"/><g id="m"><use transform="matrix(0.06172839506172839,0,0,0.06172839506172839,0,0)" xlink:href="#W"/><use transform="matrix(0.06172839506172839,0,0,0.06172839506172839,15.987654320987653,0)" xlink:href="#F"/><use transform="matrix(0.06172839506172839,0,0,0.06172839506172839,28.333333333333332,0)" xlink:href="#X"/><use transform="matrix(0.06172839506172839,0,0,0.06172839506172839,40.67901234567901,0)" xlink:href="#A"/><use transform="matrix(0.06172839506172839,0,0,0.06172839506172839,53.02469135802469,0)" xlink:href="#G"/><use transform="matrix(0.06172839506172839,0,0,0.06172839506172839,64.1358024691358,0)" xlink:href="#O"/><use transform="matrix(0.06172839506172839,0,0,0.06172839506172839,69.01234567901234,0)" xlink:href="#C"/><use transform="matrix(0.06172839506172839,0,0,0.06172839506172839,75.18518518518518,0)" xlink:href="#A"/><use transform="matrix(0.06172839506172839,0,0,0.06172839506172839,87.53086419753086,0)" xlink:href="#D"/><use transform="matrix(0.06172839506172839,0,0,0.06172839506172839,94.87654320987654,0)" xlink:href="#O"/><use transform="matrix(0.06172839506172839,0,0,0.06172839506172839,99.75308641975309,0)" xlink:href="#F"/><use transform="matrix(0.06172839506172839,0,0,0.06172839506172839,112.09876543209877,0)" xlink:href="#G"/></g><path fill="#3a414a" d="M141 0L90-78 38 0H4l68-98-65-92h35l48 74 47-74h35l-64 92 68 98h-35" id="Y"/><g id="n"><use transform="matrix(0.06172839506172839,0,0,0.06172839506172839,0,0)" xlink:href="#P"/><use transform="matrix(0.06172839506172839,0,0,0.06172839506172839,14.814814814814813,0)" xlink:href="#Y"/><use transform="matrix(0.06172839506172839,0,0,0.06172839506172839,25.925925925925924,0)" xlink:href="#C"/><use transform="matrix(0.06172839506172839,0,0,0.06172839506172839,32.098765432098766,0)" xlink:href="#F"/><use transform="matrix(0.06172839506172839,0,0,0.06172839506172839,44.44444444444444,0)" xlink:href="#B"/><use transform="matrix(0.06172839506172839,0,0,0.06172839506172839,56.79012345679012,0)" xlink:href="#G"/><use transform="matrix(0.06172839506172839,0,0,0.06172839506172839,67.90123456790123,0)" xlink:href="#O"/><use transform="matrix(0.06172839506172839,0,0,0.06172839506172839,72.77777777777777,0)" xlink:href="#A"/><use transform="matrix(0.06172839506172839,0,0,0.06172839506172839,85.12345679012346,0)" xlink:href="#B"/><use transform="matrix(0.06172839506172839,0,0,0.06172839506172839,97.46913580246914,0)" xlink:href="#G"/></g><g id="o"><use transform="matrix(0.06172839506172839,0,0,0.06172839506172839,0,0)" xlink:href="#S"/><use transform="matrix(0.06172839506172839,0,0,0.06172839506172839,15.987654320987653,0)" xlink:href="#A"/><use transform="matrix(0.06172839506172839,0,0,0.06172839506172839,28.333333333333332,0)" xlink:href="#R"/><use transform="matrix(0.06172839506172839,0,0,0.06172839506172839,46.79012345679012,0)" xlink:href="#I"/><use transform="matrix(0.06172839506172839,0,0,0.06172839506172839,59.1358024691358,0)" xlink:href="#O"/><use transform="matrix(0.06172839506172839,0,0,0.06172839506172839,64.01234567901234,0)" xlink:href="#B"/></g><path fill="#3a414a" d="M185-189c-5-48-123-54-124 2 14 75 158 14 163 119 3 78-121 87-175 55-17-10-28-26-33-46l33-7c5 56 141 63 141-1 0-78-155-14-162-118-5-82 145-84 179-34 5 7 8 16 11 25" id="Z"/><path fill="#3a414a" d="M108 0H70L1-190h34L89-25l56-165h34" id="aa"/><g id="p"><use transform="matrix(0.06172839506172839,0,0,0.06172839506172839,0,0)" xlink:href="#Z"/><use transform="matrix(0.06172839506172839,0,0,0.06172839506172839,14.814814814814813,0)" xlink:href="#F"/><use transform="matrix(0.06172839506172839,0,0,0.06172839506172839,27.160493827160494,0)" xlink:href="#D"/><use transform="matrix(0.06172839506172839,0,0,0.06172839506172839,34.50617283950617,0)" xlink:href="#aa"/><use transform="matrix(0.06172839506172839,0,0,0.06172839506172839,45.61728395061728,0)" xlink:href="#O"/><use transform="matrix(0.06172839506172839,0,0,0.06172839506172839,50.49382716049382,0)" xlink:href="#N"/><use transform="matrix(0.06172839506172839,0,0,0.06172839506172839,61.60493827160494,0)" xlink:href="#F"/><use transform="matrix(0.06172839506172839,0,0,0.06172839506172839,73.95061728395062,0)" xlink:href="#G"/></g><g id="q"><use transform="matrix(0.06172839506172839,0,0,0.06172839506172839,0,0)" xlink:href="#P"/><use transform="matrix(0.06172839506172839,0,0,0.06172839506172839,14.814814814814813,0)" xlink:href="#B"/><use transform="matrix(0.06172839506172839,0,0,0.06172839506172839,27.160493827160494,0)" xlink:href="#C"/><use transform="matrix(0.06172839506172839,0,0,0.06172839506172839,33.333333333333336,0)" xlink:href="#O"/><use transform="matrix(0.06172839506172839,0,0,0.06172839506172839,38.20987654320988,0)" xlink:href="#C"/><use transform="matrix(0.06172839506172839,0,0,0.06172839506172839,44.38271604938272,0)" xlink:href="#O"/><use transform="matrix(0.06172839506172839,0,0,0.06172839506172839,49.25925925925927,0)" xlink:href="#F"/><use transform="matrix(0.06172839506172839,0,0,0.06172839506172839,61.604938271604944,0)" xlink:href="#G"/></g><path fill="#3a414a" d="M33 0v-38h34V0H33" id="ab"/><path fill="#3a414a" d="M232-93c-1 65-40 97-104 97C67 4 28-28 28-90v-158h33c8 89-33 224 67 224 102 0 64-133 71-224h33v155" id="ac"/><path fill="#3a414a" d="M127-220V0H93v-220H8v-28h204v28h-85" id="ad"/><g id="r"><use transform="matrix(0.06172839506172839,0,0,0.06172839506172839,0,0)" xlink:href="#S"/><use transform="matrix(0.06172839506172839,0,0,0.06172839506172839,15.987654320987653,0)" xlink:href="#A"/><use transform="matrix(0.06172839506172839,0,0,0.06172839506172839,28.333333333333332,0)" xlink:href="#R"/><use transform="matrix(0.06172839506172839,0,0,0.06172839506172839,46.79012345679012,0)" xlink:href="#I"/><use transform="matrix(0.06172839506172839,0,0,0.06172839506172839,59.1358024691358,0)" xlink:href="#O"/><use transform="matrix(0.06172839506172839,0,0,0.06172839506172839,64.01234567901234,0)" xlink:href="#B"/><use transform="matrix(0.06172839506172839,0,0,0.06172839506172839,76.35802469135803,0)" xlink:href="#ab"/><use transform="matrix(0.06172839506172839,0,0,0.06172839506172839,82.53086419753086,0)" xlink:href="#ac"/><use transform="matrix(0.06172839506172839,0,0,0.06172839506172839,98.51851851851852,0)" xlink:href="#B"/><use transform="matrix(0.06172839506172839,0,0,0.06172839506172839,110.8641975308642,0)" xlink:href="#O"/><use transform="matrix(0.06172839506172839,0,0,0.06172839506172839,115.74074074074075,0)" xlink:href="#C"/><use transform="matrix(0.06172839506172839,0,0,0.06172839506172839,121.91358024691358,0)" xlink:href="#ad"/><use transform="matrix(0.06172839506172839,0,0,0.06172839506172839,132.96296296296296,0)" xlink:href="#F"/><use transform="matrix(0.06172839506172839,0,0,0.06172839506172839,145.30864197530863,0)" xlink:href="#G"/><use transform="matrix(0.06172839506172839,0,0,0.06172839506172839,156.41975308641975,0)" xlink:href="#C"/><use transform="matrix(0.06172839506172839,0,0,0.06172839506172839,162.59259259259258,0)" xlink:href="#G"/></g><g id="s"><use transform="matrix(0.06172839506172839,0,0,0.06172839506172839,0,0)" xlink:href="#y"/><use transform="matrix(0.06172839506172839,0,0,0.06172839506172839,6.172839506172839,0)" xlink:href="#B"/><use transform="matrix(0.06172839506172839,0,0,0.06172839506172839,18.51851851851852,0)" xlink:href="#C"/><use transform="matrix(0.06172839506172839,0,0,0.06172839506172839,24.691358024691358,0)" xlink:href="#F"/><use transform="matrix(0.06172839506172839,0,0,0.06172839506172839,37.03703703703704,0)" xlink:href="#J"/><use transform="matrix(0.06172839506172839,0,0,0.06172839506172839,49.382716049382715,0)" xlink:href="#D"/><use transform="matrix(0.06172839506172839,0,0,0.06172839506172839,56.72839506172839,0)" xlink:href="#I"/><use transform="matrix(0.06172839506172839,0,0,0.06172839506172839,69.07407407407408,0)" xlink:href="#C"/><use transform="matrix(0.06172839506172839,0,0,0.06172839506172839,75.24691358024691,0)" xlink:href="#O"/><use transform="matrix(0.06172839506172839,0,0,0.06172839506172839,80.12345679012346,0)" xlink:href="#A"/><use transform="matrix(0.06172839506172839,0,0,0.06172839506172839,92.46913580246914,0)" xlink:href="#B"/></g><g id="t"><use transform="matrix(0.06172839506172839,0,0,0.06172839506172839,0,0)" xlink:href="#ad"/><use transform="matrix(0.06172839506172839,0,0,0.06172839506172839,11.049382716049381,0)" xlink:href="#F"/><use transform="matrix(0.06172839506172839,0,0,0.06172839506172839,23.39506172839506,0)" xlink:href="#G"/><use transform="matrix(0.06172839506172839,0,0,0.06172839506172839,34.50617283950617,0)" xlink:href="#C"/><use transform="matrix(0.06172839506172839,0,0,0.06172839506172839,40.67901234567901,0)" xlink:href="#G"/></g><path fill="#3a414a" d="M160-131c35 5 61 23 61 61C221 17 115-2 30 0v-248c76 3 177-17 177 60 0 33-19 50-47 57zm-97-11c50-1 110 9 110-42 0-47-63-36-110-37v79zm0 115c55-2 124 14 124-45 0-56-70-42-124-44v89" id="ae"/><g id="u"><use transform="matrix(0.06172839506172839,0,0,0.06172839506172839,0,0)" xlink:href="#ae"/><use transform="matrix(0.06172839506172839,0,0,0.06172839506172839,14.814814814814813,0)" xlink:href="#Q"/><use transform="matrix(0.06172839506172839,0,0,0.06172839506172839,27.160493827160494,0)" xlink:href="#G"/><use transform="matrix(0.06172839506172839,0,0,0.06172839506172839,38.27160493827161,0)" xlink:href="#O"/><use transform="matrix(0.06172839506172839,0,0,0.06172839506172839,43.14814814814815,0)" xlink:href="#B"/><use transform="matrix(0.06172839506172839,0,0,0.06172839506172839,55.49382716049383,0)" xlink:href="#F"/><use transform="matrix(0.06172839506172839,0,0,0.06172839506172839,67.8395061728395,0)" xlink:href="#G"/><use transform="matrix(0.06172839506172839,0,0,0.06172839506172839,78.95061728395062,0)" xlink:href="#G"/></g><path fill="#3a414a" d="M30 0v-248h33v221h125V0H30" id="af"/><g id="v"><use transform="matrix(0.06172839506172839,0,0,0.06172839506172839,0,0)" xlink:href="#af"/><use transform="matrix(0.06172839506172839,0,0,0.06172839506172839,12.345679012345679,0)" xlink:href="#A"/><use transform="matrix(0.06172839506172839,0,0,0.06172839506172839,24.691358024691358,0)" xlink:href="#J"/><use transform="matrix(0.06172839506172839,0,0,0.06172839506172839,37.03703703703704,0)" xlink:href="#O"/><use transform="matrix(0.06172839506172839,0,0,0.06172839506172839,41.91358024691358,0)" xlink:href="#N"/></g></defs></g></svg>